# xmcd
#
# Track frame offsets:
#	150
#	36596
#	67476
#	92352
#	136110
#	159929
#	185782
#	201640
#	221494
#	229352
#	267161
#
# Disc length: 3566 seconds
#
# Revision: 1
# Processed by: cddbd v1.5.1PL0 Copyright (c) Steve Scherf et al.
# Submitted via: EasyCDDAExtractor 8.0.2.1
#
DISCID=ab0dec0b
DTITLE=PPK - Воскрешение (HeyDJ'2001EP)
DYEAR=2001
DGENRE=Trance
TTITLE0=Воскрешение (Space Club Mix)
TTITLE1=Воскрешение (Wellenrausch Remix)
TTITLE2=Воскрешение (B-Power Techстиль Mix)
TTITLE3=Воскрешение (PartyZans Promo Mix)
TTITLE4=Hey DJ 2001 (Feat. VERA Trance Mix)
TTITLE5=Hey DJ (Feat. VERA Original Mix)
TTITLE6=Воскрешение (Radio Edit)
TTITLE7=Воскрешение (Wellenrausch Radiomix)
TTITLE8=Воскрешение (Robots Outro)
TTITLE9=Воскрешение (Unknown Mix)
TTITLE10=PPK Radio ID
EXTD=
EXTT0=
EXTT1=
EXTT2=
EXTT3=
EXTT4=
EXTT5=
EXTT6=
EXTT7=
EXTT8=
EXTT9=
EXTT10=
PLAYORDER=
